<?xml version="1.0" encoding="utf-8"?>
<!-- Generator: Adobe Illustrator 22.1.0, SVG Export Plug-In . SVG Version: 6.00 Build 0)  -->
<svg version="1.1" id="图层_1" xmlns="http://www.w3.org/2000/svg" xmlns:xlink="http://www.w3.org/1999/xlink" x="0px" y="0px"
	 viewBox="0 0 256 256" style="enable-background:new 0 0 256 256;" xml:space="preserve">
<style type="text/css">
	.st0{fill:#11639E;}
	.st1{fill:#C18627;}
	.st2{fill:#FF86A5;}
	.st3{fill:#44AAD2;}
	.st4{fill:#FBB73E;}
	.st5{opacity:0.7;fill:#FC86A9;}
</style>
<g>
	<polygon class="st0" points="125.3,155.4 5,155.4 21.3,127.1 141.7,127.1 	"/>
	<polygon class="st1" points="114.5,249.5 76.3,249.5 144.6,130.1 182.8,130.1 	"/>
	<polygon class="st2" points="189.4,127.1 145.7,127.1 123.9,164.9 145.7,202.7 189.4,202.7 211.2,164.9 	"/>
	<polygon class="st3" points="122.7,151.4 2.3,151.4 18.7,123.1 139,123.1 	"/>
	<polygon class="st4" points="111.5,246.5 73.3,246.5 141.6,127.1 179.8,127.1 	"/>
	<polygon class="st5" points="125.3,99.8 2.3,151.4 18.7,123.1 141.7,71.4 	"/>
	<polygon class="st0" points="125.3,99.8 5,99.8 21.3,71.4 141.7,71.4 	"/>
	<polygon class="st3" points="122.7,95.8 2.3,95.8 18.7,67.4 139,67.4 	"/>
	<polygon class="st5" points="125.3,44.1 2.3,95.8 18.7,67.4 141.7,15.8 	"/>
	<polygon class="st0" points="125.3,44.1 5,44.1 21.3,15.8 141.7,15.8 	"/>
	<polygon class="st3" points="122.7,40.1 2.3,40.1 18.7,11.8 139,11.8 	"/>
</g>
</svg>
