<?xml version="1.0" encoding="utf-8"?>
<!-- Generator: Adobe Illustrator 22.1.0, SVG Export Plug-In . SVG Version: 6.00 Build 0)  -->
<svg version="1.1" id="图层_1" xmlns="http://www.w3.org/2000/svg" xmlns:xlink="http://www.w3.org/1999/xlink" x="0px" y="0px"
	 viewBox="0 0 949 256" style="enable-background:new 0 0 949 256;" xml:space="preserve">
<style type="text/css">
	.st0{font-family:'Algerian';}
	.st1{font-size:200px;}
	.st2{fill:#11639E;}
	.st3{fill:#C18627;}
	.st4{fill:#FF86A5;}
	.st5{fill:#44AAD2;}
	.st6{fill:#FBB73E;}
	.st7{opacity:0.7;fill:#FC86A9;enable-background:new    ;}
</style>
<text transform="matrix(1 0 0 1 253 189.8085)" class="st0 st1">Zipeng</text>
<g>
	<polygon class="st2" points="140.8,153.5 20.5,153.5 36.8,125.1 157.2,125.1 	"/>
	<polygon class="st3" points="130,247.6 91.8,247.6 160.1,128.1 198.3,128.1 	"/>
	<polygon class="st4" points="204.9,125.1 161.2,125.1 139.4,162.9 161.2,200.7 204.9,200.7 226.7,162.9 	"/>
	<polygon class="st5" points="138.2,149.5 17.8,149.5 34.2,121.1 154.5,121.1 	"/>
	<polygon class="st6" points="127,244.6 88.8,244.6 157.1,125.1 195.3,125.1 	"/>
	<polygon class="st7" points="140.8,97.8 17.8,149.5 34.2,121.1 157.2,69.5 	"/>
	<polygon class="st2" points="140.8,97.8 20.5,97.8 36.8,69.5 157.2,69.5 	"/>
	<polygon class="st5" points="138.2,93.8 17.8,93.8 34.2,65.5 154.5,65.5 	"/>
	<polygon class="st7" points="140.8,42.2 17.8,93.8 34.2,65.5 157.2,13.8 	"/>
	<polygon class="st2" points="140.8,42.2 20.5,42.2 36.8,13.8 157.2,13.8 	"/>
	<polygon class="st5" points="138.2,38.2 17.8,38.2 34.2,9.8 154.5,9.8 	"/>
</g>
</svg>
